<svg width="250" height="54" viewBox="0 0 250 54" fill="none" xmlns="http://www.w3.org/2000/svg">
<path d="M85.25 40H77.1705V13.8182H85.608C88.1477 13.8182 90.321 14.3423 92.1278 15.3906C93.9347 16.4304 95.3196 17.9261 96.2827 19.8778C97.2457 21.821 97.7273 24.1477 97.7273 26.858C97.7273 29.5852 97.2415 31.9332 96.2699 33.902C95.2983 35.8622 93.8835 37.3707 92.0256 38.4276C90.1676 39.4759 87.9091 40 85.25 40ZM80.3409 37.1875H85.0455C87.2102 37.1875 89.0043 36.7699 90.4276 35.9347C91.8509 35.0994 92.9119 33.9105 93.6108 32.3679C94.3097 30.8253 94.6591 28.9886 94.6591 26.858C94.6591 24.7443 94.3139 22.9247 93.6236 21.3991C92.9332 19.8651 91.902 18.6889 90.5298 17.8707C89.1577 17.044 87.4489 16.6307 85.4034 16.6307H80.3409V37.1875ZM102.889 40H99.565L109.179 13.8182H112.451L122.065 40H118.741L110.917 17.9602H110.713L102.889 40ZM104.116 29.7727H117.514V32.5852H104.116V29.7727ZM121.221 13.8182H124.852L132.113 26.0398H132.42L139.681 13.8182H143.312L133.852 29.2102V40H130.681V29.2102L121.221 13.8182ZM178.606 22H175.435C175.248 21.0881 174.92 20.2869 174.451 19.5966C173.991 18.9062 173.428 18.3267 172.763 17.858C172.107 17.3807 171.379 17.0227 170.577 16.7841C169.776 16.5455 168.941 16.4261 168.072 16.4261C166.487 16.4261 165.05 16.8267 163.763 17.6278C162.485 18.429 161.467 19.6094 160.708 21.169C159.958 22.7287 159.583 24.642 159.583 26.9091C159.583 29.1761 159.958 31.0895 160.708 32.6491C161.467 34.2088 162.485 35.3892 163.763 36.1903C165.05 36.9915 166.487 37.392 168.072 37.392C168.941 37.392 169.776 37.2727 170.577 37.0341C171.379 36.7955 172.107 36.4418 172.763 35.973C173.428 35.4957 173.991 34.9119 174.451 34.2216C174.92 33.5227 175.248 32.7216 175.435 31.8182H178.606C178.367 33.1562 177.933 34.3537 177.302 35.4105C176.671 36.4673 175.887 37.3665 174.95 38.108C174.012 38.8409 172.96 39.3991 171.792 39.7827C170.633 40.1662 169.393 40.358 168.072 40.358C165.839 40.358 163.853 39.8125 162.114 38.7216C160.376 37.6307 159.008 36.0795 158.011 34.0682C157.013 32.0568 156.515 29.6705 156.515 26.9091C156.515 24.1477 157.013 21.7614 158.011 19.75C159.008 17.7386 160.376 16.1875 162.114 15.0966C163.853 14.0057 165.839 13.4602 168.072 13.4602C169.393 13.4602 170.633 13.652 171.792 14.0355C172.96 14.419 174.012 14.9815 174.95 15.723C175.887 16.456 176.671 17.3509 177.302 18.4077C177.933 19.456 178.367 20.6534 178.606 22ZM184.803 40H181.479L191.093 13.8182H194.365L203.979 40H200.655L192.831 17.9602H192.627L184.803 40ZM186.03 29.7727H199.428V32.5852H186.03V29.7727ZM208.057 40V13.8182H216.904C218.949 13.8182 220.628 14.1676 221.941 14.8665C223.253 15.5568 224.225 16.5071 224.855 17.7173C225.486 18.9276 225.801 20.304 225.801 21.8466C225.801 23.3892 225.486 24.7571 224.855 25.9503C224.225 27.1435 223.257 28.081 221.953 28.7628C220.65 29.4361 218.983 29.7727 216.955 29.7727H209.796V26.9091H216.853C218.25 26.9091 219.375 26.7045 220.228 26.2955C221.088 25.8864 221.711 25.3068 222.094 24.5568C222.486 23.7983 222.682 22.8949 222.682 21.8466C222.682 20.7983 222.486 19.8821 222.094 19.098C221.702 18.3139 221.076 17.7088 220.215 17.2827C219.354 16.848 218.216 16.6307 216.801 16.6307H211.228V40H208.057ZM220.381 28.2386L226.824 40H223.142L216.801 28.2386H220.381ZM231.085 40V13.8182H246.886V16.6307H234.255V25.4773H246.067V28.2898H234.255V37.1875H247.09V40H231.085Z" fill="white"/>
<path d="M26.9685 11.2909C26.9685 16.7852 21.3657 21.5818 13.9843 21.5818C6.60283 21.5818 1 16.7852 1 11.2909C1 5.79658 6.60283 1 13.9843 1C21.3657 1 26.9685 5.79658 26.9685 11.2909Z" fill="#CD5909" stroke="#CD5909" stroke-width="2"/>
<ellipse cx="15.1496" cy="12.7636" rx="11.6535" ry="9.81818" fill="white"/>
<path d="M47.0315 11.2909C47.0315 16.7852 52.6343 21.5818 60.0157 21.5818C67.3972 21.5818 73 16.7852 73 11.2909C73 5.79658 67.3972 1 60.0157 1C52.6343 1 47.0315 5.79658 47.0315 11.2909Z" fill="#CD5909" stroke="#CD5909" stroke-width="2"/>
<ellipse cx="11.6535" cy="9.81818" rx="11.6535" ry="9.81818" transform="matrix(-1 0 0 1 70.5039 2.94547)" fill="white"/>
<path d="M65.4252 29.4545C65.4252 42.3046 52.9967 53 37.2913 53C21.586 53 9.15747 42.3046 9.15747 29.4545C9.15747 16.6045 21.586 5.90909 37.2913 5.90909C52.9967 5.90909 65.4252 16.6045 65.4252 29.4545Z" fill="#CD5909" stroke="#CD5909" stroke-width="2"/>
<ellipse cx="37.5827" cy="40.5" rx="15.4409" ry="11.0455" fill="white"/>
<ellipse cx="25.6378" cy="30.9272" rx="2.91339" ry="2.45455" fill="#1E1E1E"/>
<ellipse cx="49.5275" cy="30.9272" rx="2.91339" ry="2.45455" fill="#1E1E1E"/>
<ellipse cx="37.5827" cy="34.3636" rx="2.03937" ry="0.981818" fill="#1E1E1E"/>
<line y1="-0.5" x2="4.57145" y2="-0.5" transform="matrix(-0.76476 0.644315 -0.76476 -0.644315 37.2914 34.8545)" stroke="#1E1E1E"/>
<line y1="-0.5" x2="4.57145" y2="-0.5" transform="matrix(0.76476 0.644315 0.76476 -0.644315 37.874 34.8545)" stroke="#1E1E1E"/>
</svg>
